<?xml version="1.0" encoding="UTF-8"?>
<!DOCTYPE svg PUBLIC "-//W3C//DTD SVG 1.1//EN" "http://www.w3.org/Graphics/SVG/1.1/DTD/svg11.dtd">
<svg xmlns="http://www.w3.org/2000/svg" xmlns:xlink="http://www.w3.org/1999/xlink" version="1.1" width="24" height="24" viewBox="0 0 24 24" id="freebsd-logo">
  <!-- SYMBOL SET TITLE -->
  <title>OS Icons</title>
  <!--<desc>FreeBSD Logo</desc>
      <metadata>
        <rdf:RDF>
            <cc:Work rdf:about="">
                <dc:format>image/svg+xml</dc:format>
                <dc:type rdf:resource="http://purl.org/dc/dcmitype/StillImage"/>
                <dc:title>FreeBSD Logo</dc:title>
                <dc:date>2020-04-16</dc:date>
                <dc:creator>
                    <cc:Agent>
                        <dc:title>ME</dc:title>
                    </cc:Agent>
                 </dc:creator>
                <dc:rights>
                    <cc:Agent>
                        <dc:title>Open Source</dc:title>
                    </cc:Agent>
                </dc:rights>
                <dc:language>English</dc:language>
                <dc:source>https://github.com/dszidi/my-icon-repo</dc:source>
                <dc:description>
                  FreeBSD Logo as Symbol Set (Inkscape Compatible)
                </dc:description>
            </cc:Work>
        </rdf:RDF>
    </metadata>-->

  <defs>

    <symbol id="freebsd">
      <title>FreeBSD Logo</title>
      <path fill="red" stroke="red" stroke-width="0" id="daemon" d="M2.69,2C3.54,1.95 6.08,3.16 6.13,3.19C4.84,4 3.74,5.09 2.91,6.38C2.09,4.81 1.34,2.91 2,2.25C2.17,2.08 2.4,2 2.69,2M20.84,2.13C21.25,2.08 21.58,2.14 21.78,2.34C22.85,3.42 19.88,8.15 19.38,8.66C18.87,9.16 17.57,8.7 16.5,7.63C15.43,6.55 14.97,5.26 15.47,4.75C15.88,4.34 19.09,2.3 20.84,2.13M12,2.56C13.29,2.56 14.53,2.82 15.66,3.28C15.17,3.6 14.81,3.85 14.69,3.97C13.7,4.96 14.14,6.83 15.72,8.41C16.7,9.38 17.84,9.97 18.78,9.97C19.46,9.97 19.92,9.68 20.16,9.44C20.33,9.27 20.6,8.88 20.91,8.41C21.42,9.59 21.69,10.88 21.69,12.25C21.69,17.61 17.36,21.97 12,21.97C6.64,21.97 2.31,17.61 2.31,12.25C2.31,6.89 6.64,2.56 12,2.56Z" />
    </symbol>

    <symbol id="apple">
      <title>Apple Logo</title> 
      <path fill="#333" stroke="#333" stroke-width="0" d="M18.71,19.5C17.88,20.74 17,21.95 15.66,21.97C14.32,22 13.89,21.18 12.37,21.18C10.84,21.18 10.37,21.95 9.1,22C7.79,22.05 6.8,20.68 5.96,19.47C4.25,17 2.94,12.45 4.7,9.39C5.57,7.87 7.13,6.91 8.82,6.88C10.1,6.86 11.32,7.75 12.11,7.75C12.89,7.75 14.37,6.68 15.92,6.84C16.57,6.87 18.39,7.1 19.56,8.82C19.47,8.88 17.39,10.1 17.41,12.63C17.44,15.65 20.06,16.66 20.09,16.67C20.06,16.74 19.67,18.11 18.71,19.5M13,3.5C13.73,2.67 14.94,2.04 15.94,2C16.07,3.17 15.6,4.35 14.9,5.19C14.21,6.04 13.07,6.7 11.95,6.61C11.8,5.46 12.36,4.26 13,3.5Z" />
    </symbol>

    <symbol id="gentoo">
      <title>Gentoo Logo</title>
      <path fill="#6E56AF" stroke="none" d="M10.28,2C9.93,2 9.57,2.03 9.23,2.1C5.61,2.76 3.06,5.89 2.85,7.96C2.74,8.97 3.29,9.73 3.59,10.06C4.4,10.97 6.03,11.66 7.07,12.23C5.56,13.5 4.87,14.14 4.19,14.86C3.17,15.93 2.45,17.1 2.45,17.95C2.45,18.22 2.4,19.09 2.76,19.77C2.89,20.03 3.27,20.89 4.41,21.53C5.14,21.94 6.17,22.09 7.19,21.95C10.33,21.5 14.54,18.83 17.55,16.35C19.46,14.77 20.86,13.23 21.26,12.5C21.59,11.87 21.63,10.78 21.44,10.09C20.9,8.14 16.53,4.15 12.96,2.55C12.14,2.18 11.2,2 10.28,2M11.34,4.91C11.59,4.91 11.81,4.94 12,5C13.15,5.3 15.08,6.68 14.91,7.94C14.68,9.6 13.23,10.27 11.56,10.03C10.58,9.9 8.63,8.8 8.78,6.89C8.89,5.4 10.3,4.9 11.34,4.91M11.32,6.65C11.05,6.65 10.84,6.71 10.74,6.87C10.27,7.59 10.5,8.09 10.92,8.42C11.07,8.04 12.71,8.45 12.75,8.79C14.17,7.72 12.36,6.66 11.32,6.65Z" />
    </symbol>

    <symbol id="ubuntu">
      <title>Ubuntu Logo</title>
      <path fill="#E95420" stroke="none" d="M22,12A10,10 0 0,1 12,22A10,10 0 0,1 2,12A10,10 0 0,1 12,2A10,10 0 0,1 22,12M14.34,7.74C14.92,8.07 15.65,7.87 16,7.3C16.31,6.73 16.12,6 15.54,5.66C14.97,5.33 14.23,5.5 13.9,6.1C13.57,6.67 13.77,7.41 14.34,7.74M11.88,15.5C11.35,15.5 10.85,15.39 10.41,15.18L9.57,16.68C10.27,17 11.05,17.22 11.88,17.22C12.37,17.22 12.83,17.15 13.28,17.03C13.36,16.54 13.64,16.1 14.1,15.84C14.56,15.57 15.08,15.55 15.54,15.72C16.43,14.85 17,13.66 17.09,12.33L15.38,12.31C15.22,14.1 13.72,15.5 11.88,15.5M11.88,8.5C13.72,8.5 15.22,9.89 15.38,11.69L17.09,11.66C17,10.34 16.43,9.15 15.54,8.28C15.08,8.45 14.55,8.42 14.1,8.16C13.64,7.9 13.36,7.45 13.28,6.97C12.83,6.85 12.37,6.78 11.88,6.78C11.05,6.78 10.27,6.97 9.57,7.32L10.41,8.82C10.85,8.61 11.35,8.5 11.88,8.5M8.37,12C8.37,10.81 8.96,9.76 9.86,9.13L9,7.65C7.94,8.36 7.15,9.43 6.83,10.69C7.21,11 7.45,11.47 7.45,12C7.45,12.53 7.21,13 6.83,13.31C7.15,14.56 7.94,15.64 9,16.34L9.86,14.87C8.96,14.24 8.37,13.19 8.37,12M14.34,16.26C13.77,16.59 13.57,17.32 13.9,17.9C14.23,18.47 14.97,18.67 15.54,18.34C16.12,18 16.31,17.27 16,16.7C15.65,16.12 14.92,15.93 14.34,16.26M5.76,10.8C5.1,10.8 4.56,11.34 4.56,12C4.56,12.66 5.1,13.2 5.76,13.2C6.43,13.2 6.96,12.66 6.96,12C6.96,11.34 6.43,10.8 5.76,10.8Z" />
    </symbol>

    <symbol id="linux-mint">
      <title>Linux Mint Logo</title>
      <path fill="#86BE43" stroke="none" d="M2,3.23V6.8H3.5C4.59,6.8 4.78,7.53 4.78,8.55V14.86C4.78,18.12 7.65,20.77 11.18,20.77H19.9C21,20.77 22,20.07 22,19V9.2C22,5.93 19.13,3.28 15.6,3.28H11.93V3.27L2,3.23V3.23M6.62,5.46H8.37V14.45C8.37,15.65 9.19,16.59 10.16,16.59L16.13,16.61C17.38,16.61 18.35,15.75 18.35,14.73L18.34,9.96C18.34,9.65 18.24,9.41 18,9.19C17.79,8.96 17.56,8.86 17.25,8.86C16.94,8.86 16.71,8.96 16.5,9.19C16.27,9.41 16.16,9.65 16.16,9.96V14.05H14.31V9.96C14.31,9.65 14.21,9.41 14,9.19C13.77,8.96 13.54,8.86 13.22,8.86C12.92,8.86 12.68,8.96 12.46,9.19C12.24,9.41 12.14,9.65 12.14,9.96V14.05H10.29V9.96C10.29,9.15 10.58,8.44 11.15,7.86C11.72,7.29 12.43,7 13.22,7C14,7 14.68,7.28 15.24,7.82C15.79,7.28 16.47,7 17.25,7C18.05,7 18.76,7.29 19.32,7.86C19.89,8.44 20.19,9.15 20.19,9.96L20.2,15.06C20.11,15.91 19.75,16.67 19.13,17.31V17.31C18.4,18.04 17.5,18.42 16.5,18.42H9.83C9,18.34 8.29,17.95 7.69,17.36C7,16.65 6.62,15.79 6.62,14.79V5.46H6.62Z" />
    </symbol>

    <symbol id="arch">
      <title>Arch Logo</title>
      <path fill="#1793D1" stroke="none" d="M12,2C11.11,4.18 10.57,5.61 9.58,7.73C10.19,8.37 10.93,9.12 12.14,9.97C10.84,9.43 9.95,8.9 9.29,8.34C8,11 6.03,14.75 2,22C5.17,20.17 7.63,19.04 9.92,18.61C9.82,18.19 9.76,17.73 9.77,17.25V17.15C9.82,15.12 10.88,13.56 12.13,13.67C13.38,13.77 14.35,15.5 14.3,17.54C14.29,17.92 14.25,18.29 14.18,18.63C16.44,19.07 18.87,20.19 22,22C21.38,20.86 20.83,19.84 20.31,18.87C19.5,18.23 18.61,17.39 16.85,16.5C18.06,16.8 18.93,17.16 19.61,17.57C14.26,7.62 13.83,6.3 12,2Z" />
    </symbol>

    <symbol id="windows">
      <title>Window Logo</title> 
      <path fill="#00A2ED" stroke="#FFFFFF" stroke-width="0" d="M3,12V6.75L9,5.43V11.91L3,12M20,3V11.75L10,11.9V5.21L20,3M3,13L9,13.09V19.9L3,18.75V13M20,13.25V22L10,20.09V13.1L20,13.25Z" />
    </symbol>

  </defs>
</svg>









